<svg width="17" height="17" viewBox="0 0 17 17" fill="none" xmlns="http://www.w3.org/2000/svg">
<path fill-rule="evenodd" clip-rule="evenodd" d="M11.9709 10.878L15.832 14.7391C16.1324 15.0395 16.1334 15.5255 15.8295 15.8294C15.5277 16.1311 15.0341 16.1268 14.7392 15.8319L10.8781 11.9708C8.45293 13.8581 4.94499 13.6873 2.71589 11.4582C0.301736 9.04403 0.301736 5.12991 2.71589 2.71576C5.13004 0.301614 9.04415 0.301614 11.4583 2.71576C13.6874 4.94487 13.8583 8.45281 11.9709 10.878ZM10.3655 10.3654C12.1761 8.55476 12.1761 5.61918 10.3655 3.80857C8.55488 1.99795 5.6193 1.99795 3.80869 3.80857C1.99807 5.61918 1.99807 8.55476 3.80869 10.3654C5.6193 12.176 8.55488 12.176 10.3655 10.3654Z" fill="#707070"/>
</svg>
